<svg width="93" height="29" viewBox="0 0 93 29" fill="none" xmlns="http://www.w3.org/2000/svg">
<path d="M19.9403 10.2812C19.8722 9.65909 19.7273 9.10937 19.5057 8.6321C19.2926 8.14631 18.9986 7.73722 18.6236 7.40483C18.2486 7.06392 17.7926 6.80398 17.2557 6.625C16.7188 6.44602 16.0966 6.35653 15.3892 6.35653C14.0511 6.35653 12.7983 6.68892 11.6307 7.35369C10.4716 8.01846 9.48295 8.98579 8.66477 10.2557C7.84659 11.517 7.28835 13.0597 6.99006 14.8835C6.68324 16.7074 6.68324 18.2585 6.99006 19.5369C7.3054 20.8153 7.89773 21.7912 8.76705 22.4645C9.64489 23.1293 10.7741 23.4616 12.1548 23.4616C13.4077 23.4616 14.5327 23.2401 15.5298 22.7969C16.527 22.3452 17.3409 21.7102 17.9716 20.892C18.6108 20.0739 19.0199 19.1065 19.1989 17.9901L20.2983 18.1562H13.5611L14.2514 13.9886H25.2074L24.6449 17.2869C24.2784 19.5881 23.473 21.5653 22.2287 23.2188C20.9844 24.8722 19.4332 26.142 17.5753 27.0284C15.7259 27.9148 13.6974 28.358 11.4901 28.358C9.03551 28.358 6.96875 27.8168 5.28977 26.7344C3.61932 25.6435 2.4304 24.0966 1.72301 22.0938C1.02415 20.0824 0.900568 17.696 1.35227 14.9347C1.7017 12.8125 2.32386 10.9205 3.21875 9.25852C4.12216 7.58807 5.22585 6.1733 6.52983 5.0142C7.83381 3.85511 9.27841 2.97301 10.8636 2.3679C12.4574 1.76278 14.1151 1.46023 15.8366 1.46023C17.3196 1.46023 18.6619 1.67756 19.8636 2.11222C21.0739 2.53835 22.1094 3.14347 22.9702 3.92756C23.8395 4.71165 24.4957 5.64489 24.9389 6.72727C25.3906 7.80114 25.5994 8.98579 25.5653 10.2812H19.9403ZM28.1541 28L31.4268 8.36364H36.8729L33.6001 28H28.1541ZM34.7124 5.80682C33.9027 5.80682 33.2337 5.53835 32.7053 5.00142C32.1854 4.45596 31.9723 3.80824 32.0661 3.05824C32.1598 2.29119 32.5263 1.64347 33.1655 1.11506C33.8047 0.578124 34.5291 0.309657 35.3388 0.309657C36.1484 0.309657 36.8089 0.578124 37.3203 1.11506C37.8317 1.64347 38.0447 2.29119 37.9595 3.05824C37.8743 3.80824 37.5121 4.45596 36.8729 5.00142C36.2422 5.53835 35.522 5.80682 34.7124 5.80682ZM37.9627 28L41.2354 8.36364H46.5153L45.94 11.7898H46.1445C46.707 10.571 47.4613 9.65057 48.4073 9.02841C49.3619 8.39773 50.3888 8.08239 51.4883 8.08239C51.761 8.08239 52.0465 8.09943 52.3448 8.13352C52.6516 8.15909 52.9244 8.2017 53.163 8.26136L52.3448 13.1065C52.1062 13.0213 51.7653 12.9531 51.3221 12.902C50.8874 12.8423 50.4741 12.8125 50.082 12.8125C49.2894 12.8125 48.5522 12.9872 47.8704 13.3366C47.1886 13.6776 46.6133 14.1548 46.1445 14.7685C45.6843 15.3821 45.3817 16.0895 45.2369 16.8906L43.4087 28H37.9627ZM60.6768 28.3835C58.674 28.3835 57.0163 27.9574 55.7038 27.1051C54.3913 26.2443 53.4666 25.0511 52.9297 23.5256C52.4013 21.9915 52.3033 20.206 52.6357 18.169C52.9595 16.1577 53.6328 14.3977 54.6555 12.8892C55.6783 11.3807 56.978 10.2088 58.5547 9.37358C60.1314 8.52983 61.9084 8.10795 63.8857 8.10795C65.88 8.10795 67.5334 8.53835 68.8459 9.39915C70.1584 10.2514 71.0831 11.4446 71.62 12.9787C72.157 14.5128 72.2592 16.2983 71.9268 18.3352C71.5945 20.3381 70.9126 22.0938 69.8814 23.6023C68.8501 25.1108 67.5504 26.2869 65.9822 27.1307C64.4141 27.9659 62.6456 28.3835 60.6768 28.3835ZM61.2138 24.1648C62.1342 24.1648 62.9482 23.9048 63.6555 23.3849C64.3714 22.8565 64.9638 22.1406 65.4325 21.2372C65.9098 20.3253 66.2422 19.294 66.4297 18.1435C66.6172 17.0099 66.63 16.0043 66.468 15.1264C66.3061 14.2401 65.9652 13.5412 65.4453 13.0298C64.9339 12.5185 64.2308 12.2628 63.3359 12.2628C62.4155 12.2628 61.5973 12.527 60.8814 13.0554C60.1655 13.5753 59.5732 14.2912 59.1044 15.2031C58.6357 16.1151 58.3075 17.1506 58.12 18.3097C57.9411 19.4347 57.9283 20.4403 58.0817 21.3267C58.2351 22.2045 58.5717 22.8991 59.0916 23.4105C59.6115 23.9134 60.3189 24.1648 61.2138 24.1648ZM92.5092 13.9631L87.5618 14.2699C87.5362 13.8352 87.4169 13.4474 87.2038 13.1065C86.9993 12.7571 86.6967 12.4801 86.2962 12.2756C85.9041 12.071 85.4098 11.9688 84.8132 11.9688C83.9183 11.9688 83.1214 12.1733 82.4226 12.5824C81.7237 12.9915 81.3274 13.5156 81.2337 14.1548C81.157 14.5639 81.2635 14.9091 81.5533 15.1903C81.843 15.4716 82.4268 15.7102 83.3047 15.9062L86.7564 16.6222C88.5973 17.0142 89.9268 17.6662 90.745 18.5781C91.5717 19.4901 91.8658 20.6832 91.6271 22.1577C91.4141 23.4105 90.8643 24.5057 89.978 25.4432C89.0916 26.3722 87.9666 27.0966 86.603 27.6165C85.2393 28.1278 83.7266 28.3835 82.0646 28.3835C79.397 28.3835 77.3686 27.8381 75.9794 26.7472C74.5902 25.6562 73.9212 24.1776 73.9723 22.3111L79.2905 22.0298C79.3331 22.831 79.6143 23.4361 80.1342 23.8452C80.6541 24.2457 81.3658 24.4503 82.2692 24.4588C83.2834 24.4759 84.1442 24.267 84.8516 23.8324C85.5675 23.3892 85.9723 22.8523 86.0661 22.2216C86.1342 21.7784 86.0064 21.4205 85.6825 21.1477C85.3672 20.875 84.7876 20.6491 83.9439 20.4702L80.6712 19.7926C78.8132 19.4091 77.4794 18.723 76.6697 17.7344C75.8601 16.7457 75.5831 15.4886 75.8388 13.9631C76.0433 12.7443 76.5504 11.7003 77.3601 10.831C78.1783 9.95312 79.2308 9.27983 80.5178 8.81108C81.8132 8.34233 83.2749 8.10795 84.9027 8.10795C87.451 8.10795 89.3686 8.6321 90.6555 9.6804C91.951 10.7287 92.5689 12.1562 92.5092 13.9631Z" fill="black"/>
</svg>
